<?xml version="1.0" standalone="no"?>
<!DOCTYPE svg PUBLIC "-//W3C//DTD SVG 20010904//EN"
 "http://www.w3.org/TR/2001/REC-SVG-20010904/DTD/svg10.dtd">
<svg version="1.0" xmlns="http://www.w3.org/2000/svg"
 width="365.000000pt" height="320.000000pt" viewBox="0 0 365.000000 320.000000"
 preserveAspectRatio="xMidYMid meet">
<metadata>
Created by potrace 1.15, written by Peter Selinger 2001-2017
</metadata>
<g transform="translate(0.000000,320.000000) scale(0.100000,-0.100000)"
fill="#000000" stroke="none">
<path d="M77 3179 c-20 -12 -47 -61 -47 -86 0 -26 83 -176 935 -1692 418 -743
769 -1358 781 -1366 12 -7 37 -17 57 -20 31 -6 40 -3 71 27 24 22 281 457 772
1303 405 699 794 1370 865 1491 143 245 150 268 103 323 l-26 31 -1746 0
c-1168 -1 -1753 -4 -1765 -11z m3142 -172 c-24 -20 -2324 -1089 -2326 -1082
-2 6 -138 249 -302 540 l-298 530 951 5 c1692 9 1979 10 1975 7z m-356 -920
l-468 -784 -55 39 c-30 22 -245 171 -477 331 l-422 292 31 15 c17 8 441 213
942 456 501 242 912 440 914 438 2 -1 -207 -355 -465 -787z m-1080 -592 l515
-360 -24 -40 c-13 -22 -122 -210 -241 -417 -120 -208 -222 -377 -226 -375 -4
1 -189 326 -412 722 l-403 720 126 62 c70 33 132 58 138 55 6 -4 243 -169 527
-367z"/>
</g>
</svg>
